<svg xmlns="http://www.w3.org/2000/svg" viewBox="0 0 864 569"><path d="M143 188L360 305L711 419" r="5" fill="none" stroke="rgba(0,150,136,1)" stroke-width="3" fill-opacity="1"/><path d="M140 224L357 324L711 419" r="5" fill="none" stroke="rgba(76,175,80,1)" stroke-width="3" fill-opacity="1"/><path d="M141 263L353 340L711 420" r="5" fill="none" stroke="rgba(139,195,74,1)" stroke-width="3" fill-opacity="1"/><path d="M177 167L141 414L225 414L211 371" r="5" fill="none" stroke="rgba(247, 4, 4, 1)" stroke-width="10" fill-opacity="1"/><path d="M265 190L245 161L348 159L288 195L308 388L244 416L350 417L341 392" r="5" fill="none" stroke="rgba(233,30,99,1)" stroke-width="10" fill-opacity="1"/><path d="M476 189L447 156L371 156L372 417L473 417L473 361L415 361L426 391" r="5" fill="none" stroke="rgba(156,39,176,1)" stroke-width="10" fill-opacity="1"/><path d="M502 163L527 201L518 383L490 419" r="5" fill="none" stroke="rgba(103,58,183,1)" stroke-width="10" fill-opacity="1"/><path d="M586 163L558 202L562 280L530 289L563 292L566 387L592 419" r="5" fill="none" stroke="rgba(63,81,181,1)" stroke-width="10" fill-opacity="1"/><path d="M618 170L608 162L716 161L659 178L660 419" r="5" fill="none" stroke="rgba(33,150,243,1)" stroke-width="10" fill-opacity="1"/></svg>